# xmcd CD database file
#
# Track frame offsets:
#	150
#	12466
#	27748
#	44162
#	57849
#	72438
#	86107
#	104371
#	120654
#
# Disc length: 1827 seconds
#
# Revision: 0
# Processed by: cddbd v1.4PL0 Copyright (c) Steve Scherf et al.
# Submitted via: CDex 1.51
#
DISCID=84072109
DTITLE=Doro Thea and Fast River Country Band - Country Top Hits
DYEAR=1900
DGENRE=Country
TTITLE0=Girls Night Out
TTITLE1=Why Not Me
TTITLE2=Blanket On The Ground
TTITLE3=Coal Miners Daughter
TTITLE4=Donw At The Twist And Shout
TTITLE5=No One Needs To Know
TTITLE6=Any Man Of Mine
TTITLE7=Don't Be Stupid
TTITLE8=That Don't Impress Me Much
EXTD=
EXTT0=
EXTT1=
EXTT2=
EXTT3=
EXTT4=
EXTT5=
EXTT6=
EXTT7=
EXTT8=
PLAYORDER=
